<svg xmlns="http://www.w3.org/2000/svg" xml:space="preserve" width="24px" height="24px" version="1.1" shape-rendering="geometricPrecision" text-rendering="geometricPrecision" image-rendering="optimizeQuality" fill-rule="evenodd" clip-rule="evenodd"
  viewBox="0 0 24 24"
  xmlns:xlink="http://www.w3.org/1999/xlink">
  <path fill="dimgray" d="M5.41 24l-4.94 0 0 -16.02 4.94 0 0 16.02zm-2.47 -18.21c-1.58,0 -2.87,-1.32 -2.87,-2.91 0,-1.59 1.29,-2.88 2.87,-2.88 1.58,0 2.86,1.29 2.86,2.88 0,1.59 -1.28,2.91 -2.86,2.91zm20.98 18.21l-4.93 0 0 -7.8c0,-1.86 -0.04,-4.24 -2.57,-4.24 -2.57,0 -2.97,2.02 -2.97,4.11l0 7.93 -4.94 0 0 -16.02 4.74 0 0 2.18 0.07 0c0.66,-1.26 2.28,-2.59 4.68,-2.59 5.01,0 5.93,3.32 5.93,7.63l0 8.8 -0.01 0z"/>
</svg>
