<svg xmlns="http://www.w3.org/2000/svg" xml:space="preserve" width="24px" height="24px" version="1.1" shape-rendering="geometricPrecision" text-rendering="geometricPrecision" image-rendering="optimizeQuality" fill-rule="evenodd" clip-rule="evenodd"
  viewBox="0 0 24 24"
  xmlns:xlink="http://www.w3.org/1999/xlink">
  <path fill="dimgray" d="M21.53 7.18c0.02,0.21 0.02,0.42 0.02,0.63 0,6.41 -4.95,13.79 -14,13.79 -2.78,0 -5.37,-0.79 -7.55,-2.17 0.4,0.04 0.78,0.06 1.19,0.06 2.3,0 4.41,-0.77 6.11,-2.08 -2.17,-0.04 -3.98,-1.44 -4.6,-3.35 0.3,0.04 0.61,0.07 0.92,0.07 0.45,0 0.89,-0.06 1.3,-0.16 -2.26,-0.45 -3.95,-2.4 -3.95,-4.76l0 -0.06c0.66,0.36 1.42,0.58 2.23,0.61 -1.33,-0.87 -2.19,-2.35 -2.19,-4.03 0,-0.9 0.24,-1.73 0.66,-2.45 2.43,2.95 6.07,4.86 10.15,5.07 -0.08,-0.36 -0.12,-0.73 -0.12,-1.11 0,-2.67 2.19,-4.84 4.92,-4.84 1.41,0 2.69,0.58 3.59,1.53 1.11,-0.21 2.18,-0.62 3.12,-1.17 -0.36,1.12 -1.14,2.07 -2.16,2.67 0.99,-0.11 1.95,-0.38 2.83,-0.75 -0.67,0.96 -1.5,1.81 -2.47,2.5z"/>
</svg>
